<?xml version="1.0" encoding="UTF-8"?>
<svg width="184px" height="22px" viewBox="0 0 184 22" version="1.1" xmlns="http://www.w3.org/2000/svg" xmlns:xlink="http://www.w3.org/1999/xlink">
    <!-- Generator: Sketch 59.1 (86144) - https://sketch.com -->
    <title>Group</title>
    <desc>Created with Sketch.</desc>
    <defs>
        <polygon id="path-1" points="-1.13686838e-13 21.4083647 183.586937 21.4083647 183.586937 -1.31450406e-13 -1.13686838e-13 -1.31450406e-13"></polygon>
    </defs>
    <g id="Page-1" stroke="none" stroke-width="1" fill="none" fill-rule="evenodd">
        <g id="Group">
            <path d="M11.4401275,20.4936613 C11.3141171,20.5385144 11.1787542,20.5554589 11.0330546,20.5554589 C13.1077975,19.3867875 13.8343267,17.4815293 13.9194822,15.2333943 C14.0056222,12.9513704 13.1963986,11.1153852 11.1492205,9.89039835 C12.7041702,8.5692266 13.2461137,6.90268631 13.1269944,4.94808971 C13.0059062,2.94614821 12.1223562,1.51633239 10.1445823,0.755823867 C10.9789095,0.731403869 12.2503356,1.37678954 13.0300254,2.07450378 C14.7720219,3.62990816 14.8138613,7.00335651 13.0605436,8.80844291 C12.3970196,9.49270124 12.3920974,9.52609185 13.0521757,10.1929073 C13.8904408,11.0381383 14.655856,11.9217435 14.963991,13.11633 C15.6752611,15.8688126 14.5431357,19.3852924 11.4401275,20.4936613 M13.4395595,9.39402451 C14.2832391,8.49496987 14.9177215,7.42497525 15.0944316,6.10181004 C15.3705717,4.03807099 14.5726694,1.92349848 12.4964498,0.947695283 C11.3239616,0.396501034 10.0884682,0.160773295 8.82688669,0.139841868 C6.52719537,0.101965952 4.22602736,0.112930033 1.92633604,0.117913706 L1.92633604,0.112431666 L0.000246114225,0.112431666 L0.000246114225,0.914304673 C0.000246114225,0.914304673 5.88286833,0.895366715 7.86064224,0.92227855 C8.5103838,0.931747529 9.18769014,1.00949283 9.80297571,1.21282669 C12.016527,1.94293481 12.7568386,4.5852783 12.2291697,6.70832306 C11.8791953,8.11571235 11.0581583,9.19716942 9.86056644,10.1321065 C10.1362144,10.2836102 10.3257223,10.3857755 10.5142458,10.490931 C11.413055,10.9967738 12.1922526,11.6396676 12.6303359,12.6060018 C13.5015803,14.5321915 13.3258547,16.4499089 12.3591181,18.265461 C11.5041172,19.8716989 10.1002817,20.6087842 8.27411414,20.5833674 C5.76571796,20.5484817 0.000246114225,20.5748952 0.000246114225,20.5748952 L0.000246114225,21.4028151 C0.000246114225,21.4028151 6.14817946,21.40368 8.26426957,21.4001915 C8.66740467,21.4001915 9.07349314,21.4056735 9.47515156,21.3608204 C10.7874326,21.2162939 12.0608276,20.9561462 13.2303624,20.2619205 C16.0626449,18.5804292 16.6966352,13.9510952 15.0141983,11.4173958 C14.5475657,10.7156946 13.9805186,10.0842632 13.4395595,9.39402451" id="Fill-1" fill="#000000"></path>
            <path d="M9.62597036,12.3008017 C10.8639249,13.0483527 11.5180965,14.8624097 11.1129925,16.4776182 C10.9919043,16.955054 10.8457125,17.4479393 10.5966449,17.864076 C10.1437947,18.6260796 9.36656596,18.9111457 8.5366688,18.9550021 C7.56747098,19.0058355 6.59433533,18.9664645 5.55425661,18.9664645 L5.55425661,11.7854899 C6.94726313,11.7730307 8.34420747,11.5253422 9.62597036,12.3008017 M4.82871188,11.0773099 L4.82871188,19.7299632 C6.19169246,19.7299632 7.51283362,19.7822918 8.82511467,19.7045465 C9.36312036,19.672651 9.92967531,19.4404118 10.4056602,19.1623229 C11.4949618,18.5239143 11.7711019,17.3886336 11.9330451,16.2324214 C12.3007398,13.601042 11.1415418,11.5682017 8.79065868,11.1201695 C7.52070927,10.8784614 6.16708103,11.0773099 4.82871188,11.0773099" id="Fill-3" fill="#000000"></path>
            <path d="M7.77292713,9.37533573 C7.04885908,9.31902023 6.31691537,9.36437165 5.52590425,9.36437165 L5.52590425,8.09154153 C5.52590425,6.44045063 5.54953122,4.78786461 5.51261409,3.13777044 C5.50030838,2.60003211 5.68390959,2.46098763 6.16973907,2.49986028 C6.89725272,2.55767089 7.69269389,2.45600396 8.41479303,2.55368395 C9.53116716,2.70618435 10.1070744,3.52201164 10.2867378,4.59948177 C10.4934738,5.82845556 10.5815827,7.07836079 9.84963896,8.1942052 C9.36331726,8.9352774 8.74803169,9.45158593 7.77292713,9.37533573 M11.0068681,7.42173587 C11.1456765,6.60790204 11.2096662,5.75718904 11.1422309,4.93787318 C11.0344328,3.6461051 10.54565,2.51580803 9.22352438,2.02491623 C7.79163181,1.49465341 6.30707081,1.77473584 4.8190642,1.70695788 L4.8190642,10.1293901 C6.09885817,10.1293901 7.34075055,10.1298638 8.58411962,10.1263753 C8.65253937,10.1258769 8.7239125,10.088001 8.78987111,10.0566039 C9.93036443,9.52384919 10.7838886,8.70752353 11.0068681,7.42173587" id="Fill-5" fill="#000000"></path>
            <path d="M1.31050903,2.53833424 L1.31050903,18.9445862 L0.00659586124,18.9445862 L0.00659586124,19.7320065 L0.0380984821,19.7320065 L1.93317802,19.7320065 L2.05475844,19.7320065 L2.05475844,1.70954939 L1.92579459,1.70954939 L1.92579459,1.70905103 L0.000196891379,1.70905103 L0.000196891379,2.51042567 C0.000196891379,2.51042567 1.12395444,2.52886526 1.31050903,2.53833424" id="Fill-7" fill="#000000"></path>
            <mask id="mask-2" fill="white">
                <use xlink:href="#path-1"></use>
            </mask>
            <g id="Clip-10"></g>
            <polygon id="Fill-9" fill="#000000" mask="url(#mask-2)" points="3.09562473 19.7378374 3.80541815 19.7378374 3.80541815 1.74478396 3.09562473 1.74478396"></polygon>
            <path d="M71.2910709,13.1162303 C71.6001903,11.9221422 72.3651133,11.038537 73.2038706,10.1928076 C73.863949,9.52599217 73.85755,9.49260156 73.1930416,8.80834324 C71.4412005,7.00325683 71.4845166,3.62980849 73.2245442,2.0744041 C74.0052185,1.37668987 75.2751679,0.731304195 76.1094952,0.756222561 C74.1331979,1.51673108 73.2496479,2.94604854 73.1285597,4.94749167 C73.0099326,6.90208827 73.5503994,8.56862856 75.1053491,9.89029868 C73.0596477,11.1152855 72.2499319,12.9512707 72.3355796,15.233793 C72.4212274,17.481928 73.1472643,19.3871862 75.2224995,20.5553592 C75.0753232,20.5553592 74.9399604,20.5384147 74.8149343,20.4935616 C71.7119262,19.3856911 70.5788163,15.8682146 71.2910709,13.1162303 M71.2408636,11.4167978 C69.5584267,13.9509955 70.1929092,18.5803295 73.0242072,20.2618208 C74.1932498,20.9560465 75.4666448,21.2161942 76.7799103,21.3607208 C77.1805843,21.4055738 77.5866727,21.4005901 77.9903001,21.4010885 C80.1058979,21.4035803 86.2548158,21.4031227 86.2548158,21.4031227 L86.2548158,20.5747955 C86.2548158,20.5747955 80.4893439,20.5488804 77.98144,20.5832678 C76.1552724,20.6086845 74.7509446,19.8715992 73.8959438,18.2653614 C72.9296994,16.4498093 72.754466,14.5325902 73.6252182,12.6054038 C74.0613326,11.6400663 74.8410224,10.9971725 75.740816,10.4908313 C75.9283551,10.3856758 76.117863,10.2835105 76.3944954,10.1320068 C75.1973958,9.19706975 74.376851,8.11561268 74.0258921,6.70772502 C73.4972388,4.58517863 74.239027,1.9433335 76.4530706,1.21222865 C77.0668795,1.00939316 77.7432014,0.931647855 78.3934352,0.922677244 C80.3712091,0.895765409 86.2548158,0.914703367 86.2548158,0.914703367 L86.2548158,0.112331992 L84.3277414,0.112331992 L84.3277414,0.117814033 C82.0275578,0.113328727 79.7278665,0.101866279 77.4291596,0.139742195 C76.1656092,0.160673622 74.930608,0.396401361 73.7581198,0.947595609 C71.6823925,1.92389718 70.8839979,4.03846969 71.1596459,6.10171036 C71.3368481,7.42537395 71.9718228,8.4948702 72.8155024,9.39392483 C72.2740511,10.0841636 71.7070039,10.7165917 71.2408636,11.4167978" id="Fill-11" fill="#000000" mask="url(#mask-2)"></path>
            <path d="M80.6996239,11.785141 L80.6996239,18.9671124 C79.6610219,18.9671124 78.6878862,19.005985 77.7186884,18.9546532 C76.8892835,18.9107969 76.1115625,18.6262291 75.6572357,17.8642255 C75.4106292,17.4475905 75.2629607,16.9552035 75.1423647,16.4777677 C74.7372607,14.8625592 75.3924167,13.0485022 76.6288946,12.3004528 C77.9106575,11.5254917 79.3071096,11.7731802 80.6996239,11.785141 M77.4646985,11.120319 C75.1133232,11.5678529 73.9541252,13.6016899 74.3213276,16.2325709 C74.483763,17.3887831 74.759411,18.5240638 75.8492048,19.1624724 C76.3246974,19.4405613 76.8922368,19.6732989 77.4292581,19.7041976 C78.7425236,19.7814446 80.0631725,19.729116 81.4276298,19.729116 L81.4276298,11.0774595 C80.0877839,11.0774595 78.7351402,10.8781125 77.4646985,11.120319" id="Fill-12" fill="#000000" mask="url(#mask-2)"></path>
            <path d="M76.4056198,8.19435471 C75.6731839,7.07801193 75.7612927,5.82810671 75.9670442,4.59963128 C76.1491688,3.52166278 76.7240916,2.70583549 77.8414502,2.55433183 C78.5625649,2.4556551 79.3575138,2.5578204 80.0855197,2.50000979 C80.5708569,2.46163551 80.7544582,2.60067999 80.7421524,3.13791995 C80.7062198,4.78801413 80.7293545,6.44010177 80.7293545,8.09169104 L80.7293545,9.3640228 C79.9373589,9.3640228 79.2054152,9.31867137 78.4828239,9.37548524 C77.5067348,9.45073871 76.8919415,8.93492854 76.4056198,8.19435471 M77.463911,10.0567534 C77.5303618,10.0876521 77.6022272,10.125528 77.6716314,10.1260264 C78.9145082,10.1305117 80.1564006,10.1290166 81.4366868,10.1290166 L81.4366868,1.70710739 C79.9486802,1.77438698 78.4626425,1.49430455 77.0312422,2.02556411 C75.7091165,2.51545918 75.2208259,3.64625461 75.1135201,4.93752432 C75.0451004,5.75733855 75.1085978,6.60805155 75.2488829,7.42138701 C75.4703857,8.70717468 76.3248943,9.52350034 77.463911,10.0567534" id="Fill-13" fill="#000000" mask="url(#mask-2)"></path>
            <path d="M84.9450943,2.53833424 L84.9450943,18.9445862 L86.2494997,18.9445862 L86.2494997,19.7320065 L86.2175048,19.7320065 L84.3214408,19.7320065 L84.2008449,19.7320065 L84.2008449,1.70954939 L84.3278398,1.70954939 L84.3278398,1.70905103 L86.2549142,1.70905103 L86.2549142,2.51042567 C86.2549142,2.51042567 85.1306644,2.52886526 84.9450943,2.53833424" id="Fill-14" fill="#000000" mask="url(#mask-2)"></path>
            <polygon id="Fill-15" fill="#000000" mask="url(#mask-2)" points="82.4502344 19.7378374 83.1595356 19.7378374 83.1595356 1.74478396 82.4502344 1.74478396"></polygon>
            <path d="M30.4211949,5.05429178 L31.1836568,4.75028772 L30.2538373,2.36211155 L30.2498994,2.36360666 C30.2193813,2.27888421 30.0884485,1.70326997 29.5474894,1.70326997 C28.2056747,1.70326997 26.8658288,1.70974874 25.5245063,1.70974874 L22.5539076,1.70974874 L22.5539076,9.6906029 C23.9582354,9.6906029 25.3349984,9.69558657 26.7073313,9.67914045 L27.5411663,9.69159963 L27.5411663,7.42203489 L27.1340933,7.42203489 L26.7073313,7.42203489 L26.7073313,8.8717854 L23.3439343,8.8717854 L23.3439343,2.50564134 C25.2016044,2.50564134 27.0179274,2.5260744 28.8317893,2.49268379 C29.1541989,2.48720175 29.4455981,2.51112338 29.5504428,2.81961275 L30.4211949,5.05429178 Z" id="Fill-16" fill="#000000" mask="url(#mask-2)"></path>
            <path d="M33.0270031,16.4512545 L32.2601112,16.3236725 C32.2601112,16.3236725 31.7009397,19.8461327 31.5857582,20.5857098 C27.5859098,20.5857098 17.771859,20.5742473 17.771859,20.5742473 L17.771859,21.4030321 C17.771859,21.4030321 27.2507023,21.3990452 31.7299812,21.4085162 C32.0888157,21.4090126 32.2527278,21.3193064 32.2950594,20.9255963 C32.3777538,20.2099408 33.0270031,16.4512545 33.0270031,16.4512545" id="Fill-17" fill="#000000" mask="url(#mask-2)"></path>
            <path d="M31.226333,16.4303231 C31.219934,16.4293264 31.2150118,16.428828 31.2081206,16.4278313 L31.2086128,16.4218508 L30.4476276,16.3411153 L30.2118502,18.4267825 L30.2128346,18.4267825 C30.2108657,18.4387434 30.2108657,18.4512025 30.2084046,18.4631634 C30.1724719,18.7248062 30.1148812,18.9610323 29.7486632,18.9590388 C27.7280654,18.9465797 25.7074676,18.9500682 23.6873621,18.956547 C23.4053152,18.9575437 23.2911182,18.8543817 23.299486,18.5648303 C23.3127762,18.081414 23.3019472,17.5984961 23.3019472,17.1145814 C23.3019472,15.3668072 23.3039161,11.3818622 23.3039161,11.3818622 C23.3560923,11.378872 25.6183743,11.3793704 26.7071836,11.3803671 L26.7071836,12.8824462 L27.5420031,12.8824462 L27.5420031,10.6133798 C27.5420031,10.6133798 23.7498751,10.5994255 22.5591745,10.5994255 L22.5591745,19.7290163 L30.747887,19.7290163 C30.9098301,18.6126736 31.0658665,17.5352034 31.226333,16.4303231" id="Fill-18" fill="#000000" mask="url(#mask-2)"></path>
            <polygon id="Fill-19" fill="#000000" mask="url(#mask-2)" points="28.4955972 12.882795 29.2216342 12.882795 29.2216342 7.47600807 28.4955972 7.47600807"></polygon>
            <path d="M19.6988841,0.90917149 C23.1809082,0.90917149 26.66244,0.90917149 30.1439719,0.909669857 C30.4348789,0.909669857 30.69576,0.879767818 30.8360451,1.27547146 C31.008325,1.76187796 31.1973408,2.24330079 31.3883254,2.72273014 L32.2280671,5.03963978 L32.9974202,4.75357694 L31.5778333,0.835911494 L31.5738955,0.836409862 C31.5596209,0.791556804 31.5463307,0.748198847 31.5320561,0.707332728 C31.3799575,0.270762961 31.1889729,0.104806646 30.7144646,0.106782391 C27.0439171,0.124242971 23.3714006,0.119259298 19.6988841,0.118760931 L19.6988841,0.112780523 L17.772302,0.112780523 L17.772302,0.91465353 L19.6988841,0.91465353 L19.6988841,0.90917149 Z" id="Fill-20" fill="#000000" mask="url(#mask-2)"></path>
            <path d="M19.0283213,2.51401391 L19.0283213,18.9451842 L17.7775688,18.9451842 L17.7775688,19.7321062 L17.8302373,19.7321062 C17.8312217,19.7360932 17.8326984,19.7395817 17.8346673,19.744067 L19.8380371,19.744067 L19.8380371,1.70964907 L17.7716621,1.70964907 L17.7716621,2.51102371 C17.7716621,2.51102371 17.8504186,2.51301718 17.8518953,2.51401391 L19.0283213,2.51401391 Z" id="Fill-21" fill="#000000" mask="url(#mask-2)"></path>
            <polygon id="Fill-22" fill="#000000" mask="url(#mask-2)" points="20.7996054 19.735844 21.5113677 19.735844 21.5113677 1.74627907 20.7996054 1.74627907"></polygon>
            <path d="M47.8876262,5.05429178 L48.6491036,4.75028772 L47.7197763,2.36211155 L47.7163307,2.36360666 C47.6853203,2.27888421 47.5548797,1.70326997 47.0139207,1.70326997 C45.6725981,1.70326997 44.3322601,1.70974874 42.9914298,1.70974874 L40.0203388,1.70974874 L40.0203388,9.6906029 C41.4246666,9.6906029 42.8004451,9.69558657 44.1742547,9.67914045 L45.0061208,9.69159963 L45.0061208,7.42203489 L44.6010168,7.42203489 L44.6000323,7.42203489 L44.1742547,7.42203489 L44.1742547,8.8717854 L40.8103655,8.8717854 L40.8103655,2.50564134 C42.6680357,2.50564134 44.4833742,2.5260744 46.2987127,2.49268379 C46.6191534,2.48720175 46.9110449,2.51112338 47.0173663,2.81961275 L47.8876262,5.05429178 Z" id="Fill-23" fill="#000000" mask="url(#mask-2)"></path>
            <path d="M50.4934344,16.4512545 L49.725558,16.3236725 C49.725558,16.3236725 49.1678631,19.8461327 49.0521895,20.5857098 C45.0513566,20.5857098 35.237798,20.5742473 35.237798,20.5742473 L35.237798,21.4030321 C35.237798,21.4030321 44.7176257,21.3990452 49.1969046,21.4085162 C49.5547547,21.4090126 49.7176823,21.3193064 49.7619829,20.9255963 C49.8446773,20.2099408 50.4934344,16.4512545 50.4934344,16.4512545" id="Fill-24" fill="#000000" mask="url(#mask-2)"></path>
            <path d="M48.692272,16.4303231 C48.6853808,16.4293264 48.6809508,16.428828 48.6740596,16.4278313 L48.6745518,16.4218508 L47.9135666,16.3411153 L47.6777892,18.4267825 L47.6787736,18.4267825 C47.6777892,18.4387434 47.6763125,18.4512025 47.6748358,18.4631634 C47.6393954,18.7248062 47.5813124,18.9610323 47.21411,18.9590388 C45.1949889,18.9465797 43.1734066,18.9500682 41.1542855,18.956547 C40.8722386,18.9575437 40.7575494,18.8543817 40.765425,18.5648303 C40.778223,18.081414 40.7678862,17.5984961 40.7678862,17.1145814 C40.7678862,15.3668072 40.7693629,11.3818622 40.7693629,11.3818622 C40.8220313,11.378872 43.0848055,11.3793704 44.1741071,11.3803671 L44.1741071,12.8824462 L45.0069576,12.8824462 L45.0069576,10.6133798 C45.0069576,10.6133798 41.2158141,10.5994255 40.0260979,10.5994255 L40.0260979,19.7290163 L48.213826,19.7290163 C48.3767536,18.6126736 48.53279,17.5352034 48.692272,16.4303231" id="Fill-25" fill="#000000" mask="url(#mask-2)"></path>
            <polygon id="Fill-26" fill="#000000" mask="url(#mask-2)" points="45.962816 12.882795 46.6878685 12.882795 46.6878685 7.47600807 45.962816 7.47600807"></polygon>
            <path d="M37.1657584,0.90917149 C40.6458135,0.90917149 44.128822,0.90917149 47.6093694,0.909669857 C47.9002764,0.909669857 48.1616497,0.879767818 48.3019349,1.27547146 C48.4742148,1.76187796 48.6627383,2.24330079 48.8547074,2.72273014 L49.6944491,5.03963978 L50.4638022,4.75357694 L49.0437231,0.835911494 L49.0402775,0.836409862 C49.0269874,0.791556804 49.0127127,0.748198847 48.9984381,0.707332728 C48.847324,0.270762961 48.6548626,0.104806646 48.1818311,0.106782391 C44.5102991,0.124242971 40.8372904,0.119259298 37.1657584,0.118760931 L37.1657584,0.112780523 L35.2381918,0.112780523 L35.2381918,0.91465353 L37.1657584,0.91465353 L37.1657584,0.90917149 Z" id="Fill-27" fill="#000000" mask="url(#mask-2)"></path>
            <path d="M36.4947033,2.51401391 L36.4947033,18.9451842 L35.2444431,18.9451842 L35.2444431,19.7321062 L35.2971115,19.7321062 C35.2976037,19.7360932 35.2990804,19.7395817 35.3000649,19.744067 L37.3044191,19.744067 L37.3044191,1.70964907 L35.2375519,1.70964907 L35.2375519,2.51102371 C35.2375519,2.51102371 35.3172929,2.51301718 35.3182773,2.51401391 L36.4947033,2.51401391 Z" id="Fill-28" fill="#000000" mask="url(#mask-2)"></path>
            <polygon id="Fill-29" fill="#000000" mask="url(#mask-2)" points="38.2653475 19.735844 38.9780943 19.735844 38.9780943 1.74627907 38.2653475 1.74627907"></polygon>
            <path d="M63.3855866,6.40556491 C62.9612857,7.84833829 61.9167769,8.6561917 60.2372934,8.78676394 C59.6392359,8.8331121 59.0333026,8.79374108 58.3742087,8.79374108 L58.3742087,2.53723783 C59.6023187,2.6169766 60.8348588,2.30998233 62.0088236,2.80286761 C63.1350423,3.27531982 63.7833072,5.05299603 63.3855866,6.40556491 M64.1800433,4.70463727 C63.9575561,3.23943737 62.7924513,1.90431134 61.514134,1.8225791 C60.236309,1.73985013 58.9491316,1.80413951 57.6156847,1.80413951 L57.6156847,9.64893939 C58.6286909,9.59960102 59.6018265,9.59910266 60.5621642,9.49594062 C63.1857418,9.21386472 64.5851473,7.33751179 64.1800433,4.70463727" id="Fill-30" fill="#000000" mask="url(#mask-2)"></path>
            <polygon id="Fill-31" fill="#000000" mask="url(#mask-2)" points="55.9028774 19.7373391 56.5673858 19.7373391 56.5673858 1.80658151 55.9028774 1.80658151"></polygon>
            <polygon id="Fill-32" fill="#000000" mask="url(#mask-2)" points="52.8412164 21.3709871 59.8840211 21.3709871 59.8840211 20.6129704 52.8412164 20.6129704"></polygon>
            <polygon id="Fill-33" fill="#000000" mask="url(#mask-2)" points="63.1150086 21.4028826 68.9223199 21.4028826 68.9223199 20.6159606 63.1150086 20.6159606"></polygon>
            <polygon id="Fill-34" fill="#000000" mask="url(#mask-2)" points="52.7944547 0.96085218 54.7215291 0.96085218 54.7215291 0.134060807 52.7944547 0.134060807"></polygon>
            <polygon id="Fill-35" fill="#000000" mask="url(#mask-2)" points="52.7944547 2.56958187 54.7215291 2.56958187 54.7215291 1.76820723 52.7944547 1.76820723"></polygon>
            <path d="M54.8970577,1.77134694 C54.3058914,1.77134694 53.7422898,1.77832408 53.1786882,1.76872567 C52.893688,1.76387143 52.7312526,1.90291591 52.8169003,2.16605385 C52.8666154,2.31855425 53.0595689,2.48949424 53.2160976,2.52537669 C53.4750098,2.58418403 53.7575489,2.54132444 54.0819274,2.54132444 L54.0819274,18.9974131 L53.7654245,18.9974131 L53.5385072,18.9974131 L52.7996723,18.9974131 L52.7996723,19.7315082 L54.7272389,19.7250294 L54.8970577,19.7250294 L54.8970577,1.77134694 Z" id="Fill-36" fill="#000000" mask="url(#mask-2)"></path>
            <path d="M65.2891325,19.7585197 L66.0993405,19.7585197 L66.1470867,19.7345981 L65.0444949,17.5293227 C63.9714369,15.3330179 62.9018245,13.1436903 61.8139996,10.9164868 C64.0447789,10.2407007 65.7483816,9.04661265 66.0545477,6.55228425 C66.3390557,4.22441053 65.589884,2.29822086 63.6436128,0.903789123 C65.4855316,1.28803032 66.9932274,3.02334531 67.1768286,4.9689713 C67.3097303,6.38483283 67.1172689,7.75384784 66.2908174,8.95541143 C65.4589513,10.1649489 64.2397014,10.776944 62.8235602,11.0973941 C64.2628361,13.9390846 65.4737181,16.3332411 66.8844449,19.113134 C66.932191,19.2058303 67.2555851,19.7161585 67.5085905,19.7375883 C67.8196789,19.7635034 68.9321152,19.7560278 68.9321152,19.7560278 L68.9321152,19.332914 L68.9321152,19.3314189 L68.9321152,18.9880438 L68.5959232,18.9880438 L68.5885398,18.9880438 C68.5885398,18.9880438 68.1071403,18.9975128 67.972762,18.9880438 C67.8383836,18.9790732 67.5681502,18.7627818 67.3727355,18.3416614 C67.2024245,17.9758598 67.018331,17.6120517 66.8376832,17.2487419 C65.8965424,15.3494641 64.9558938,13.4506846 63.9886649,11.5005733 C64.1624215,11.4218313 64.3145201,11.3690043 64.449883,11.2877705 C64.9952721,10.9578513 65.591853,10.6852444 66.0693146,10.2730946 C67.4598599,9.07252775 68.0027879,7.43489276 68.0037724,5.65821329 C68.0062335,3.30193263 67.1807664,1.62143805 65.0292358,0.732849134 C64.1511003,0.370536097 63.1523688,0.175176111 62.2033523,0.153247949 C59.2283236,0.083476525 56.2508337,0.13082142 53.2748204,0.135805093 C53.1325664,0.135805093 52.9898202,0.158729989 52.8239392,0.173182641 L52.8239392,0.965088302 C53.0410119,0.965088302 53.2388878,0.966085037 53.4357791,0.964589935 C55.9353152,0.947645446 58.4323901,0.928707488 60.9324184,0.913258101 C62.0049842,0.905782592 62.9987935,1.12855278 63.8149083,1.90550742 C65.0326814,3.06271632 65.413174,4.50798153 65.3078371,6.14212795 C65.2118526,7.62825928 64.5581732,8.78148124 63.2596746,9.47072324 C62.4760469,9.88636158 61.6156315,10.1519914 60.724698,10.5113142 C60.9604755,11.0002125 61.2065897,11.5130325 61.4576262,12.0233606 C62.6399589,14.4394453 65.2891325,19.7585197 65.2891325,19.7585197" id="Fill-37" fill="#000000" mask="url(#mask-2)"></path>
            <polygon id="Fill-38" fill="#000000" mask="url(#mask-2)" points="52.7944547 21.3709871 54.7215291 21.3709871 54.7215291 20.6129704 52.7944547 20.6129704"></polygon>
            <path d="M59.1112716,18.9978617 C58.3571776,18.9963666 58.355701,18.9958682 58.355701,18.2632682 C58.355701,16.1437121 58.3497942,14.0241559 58.3660378,11.9045997 C58.3680067,11.6848197 58.4649757,11.3125393 58.5895095,11.2771552 C58.9173336,11.185954 59.2604168,11.1605373 59.4829041,11.6270091 C60.6524389,14.0794746 61.865782,16.5095137 63.0407313,18.958989 L63.4197473,19.7583702 L64.1895925,19.7583702 C64.1895925,19.7583702 60.99946,13.0563265 59.8816092,10.7508794 C59.827464,10.6367532 59.6807799,10.4972104 59.5724897,10.4937218 C58.9207792,10.4698002 58.2651309,10.481761 57.6153894,10.481761 L57.6153894,19.7239828 L59.8909615,19.7239828 L59.8909615,18.9978617 C59.6143291,18.9978617 59.3632926,18.99836 59.1112716,18.9978617" id="Fill-39" fill="#000000" mask="url(#mask-2)"></path>
            <path d="M178.03972,6.29044206 C177.614927,7.73321544 176.57091,8.54106885 174.891427,8.67114272 C174.292877,8.71848761 173.687436,8.6791166 173.028834,8.6791166 L173.028834,2.42211498 C174.25596,2.50185375 175.489484,2.19485948 176.664433,2.68774476 C177.789175,3.16019697 178.43744,4.93787318 178.03972,6.29044206 M178.834176,4.58951442 C178.611197,3.12431452 177.446584,1.78968686 176.167775,1.70745625 C174.890442,1.62472728 173.603265,1.68901666 172.269818,1.68901666 L172.269818,9.53431491 C173.282824,9.48447817 174.25596,9.48397981 175.21679,9.38031941 C177.840859,9.09874187 179.23928,7.22288731 178.834176,4.58951442" id="Fill-40" fill="#000000" mask="url(#mask-2)"></path>
            <polygon id="Fill-41" fill="#000000" mask="url(#mask-2)" points="170.557158 19.6222162 171.221667 19.6222162 171.221667 1.69145866 170.557158 1.69145866"></polygon>
            <polygon id="Fill-42" fill="#000000" mask="url(#mask-2)" points="167.495497 21.2558643 174.538794 21.2558643 174.538794 20.4973492 167.495497 20.4973492"></polygon>
            <polygon id="Fill-43" fill="#000000" mask="url(#mask-2)" points="177.768305 21.2877598 183.576108 21.2877598 183.576108 20.5013362 177.768305 20.5013362"></polygon>
            <polygon id="Fill-44" fill="#000000" mask="url(#mask-2)" points="167.448243 0.845729331 169.376302 0.845729331 169.376302 0.0194363252 167.448243 0.0194363252"></polygon>
            <polygon id="Fill-45" fill="#000000" mask="url(#mask-2)" points="167.448243 2.45495738 169.376302 2.45495738 169.376302 1.65408111 167.448243 1.65408111"></polygon>
            <path d="M169.552175,1.65622409 C168.960517,1.65622409 168.396423,1.66320123 167.833314,1.65360282 C167.547821,1.64874858 167.385386,1.78779306 167.471033,2.05142937 C167.519764,2.2034314 167.712718,2.37437139 167.870723,2.41025384 C168.128651,2.46906118 168.412174,2.42620159 168.736061,2.42620159 L168.736061,18.8822903 L168.419065,18.8822903 L168.194117,18.8822903 L167.453805,18.8822903 L167.453805,19.6168837 L169.380388,19.6094082 L169.552175,19.6094082 L169.552175,1.65622409 Z" id="Fill-46" fill="#000000" mask="url(#mask-2)"></path>
            <path d="M179.942773,19.6429483 L180.753474,19.6429483 L180.80122,19.6190267 L179.69912,17.414748 C178.626062,15.2179449 177.555465,13.028119 176.468625,10.8019122 C178.69842,10.1256277 180.403007,8.93104127 180.708681,6.43721124 C180.993681,4.10983589 180.245002,2.18364622 178.297746,0.78871611 C180.139665,1.17295731 181.647853,2.90827229 181.830962,4.85439665 C181.964848,6.26975982 181.771402,7.63877483 180.945443,8.84033842 C180.113084,10.0503743 178.893342,10.6623693 177.477693,10.9828195 C178.915985,13.8240116 180.127851,16.2181681 181.538086,18.9990577 C181.585832,19.0907573 181.909718,19.6015838 182.161739,19.6225152 C182.474304,19.6484303 183.586741,19.6409548 183.586741,19.6409548 L183.586741,19.2173426 L183.586741,19.2168443 L183.586741,18.8729708 L183.250549,18.8729708 L183.242673,18.8729708 C183.242673,18.8729708 182.761273,18.8819414 182.626895,18.8729708 C182.492517,18.8635018 182.223268,18.6477088 182.027853,18.2265884 C181.85705,17.8602884 181.672464,17.497477 181.492308,17.1341672 C180.550675,15.2348894 179.610027,13.33611 178.64329,11.3855003 C178.817047,11.3062599 178.968653,11.2539313 179.103524,11.1721991 C179.649405,10.8432767 180.245986,10.5701714 180.723448,10.1580216 C182.113009,8.95795311 182.656921,7.31981975 182.657905,5.54264191 C182.660367,3.18636125 181.834899,1.50636504 179.682384,0.617776121 C178.806218,0.255961452 177.806502,0.0606014653 176.857485,0.0376765689 C173.882457,-0.032094855 170.905951,0.0157484071 167.929446,0.0202337129 C167.786207,0.0207320802 167.643953,0.0431586093 167.478072,0.0581096287 L167.478072,0.850513657 C167.695637,0.850513657 167.893021,0.851012024 168.08942,0.850015289 C170.588464,0.832074066 173.087508,0.813634476 175.586552,0.797686722 C176.65961,0.791207946 177.652434,1.01397814 178.470026,1.79093278 C179.686322,2.94764331 180.068292,4.39290852 179.96197,6.02705494 C179.865493,7.51318627 179.213291,8.6669066 177.913808,9.35565022 C177.13018,9.77128856 176.269272,10.03642 175.378831,10.3957428 C175.615101,10.8851395 175.860723,11.3984578 176.110775,11.908786 C177.295569,14.3248707 179.942773,19.6429483 179.942773,19.6429483" id="Fill-47" fill="#000000" mask="url(#mask-2)"></path>
            <polygon id="Fill-48" fill="#000000" mask="url(#mask-2)" points="167.448243 21.2558643 169.376302 21.2558643 169.376302 20.4973492 167.448243 20.4973492"></polygon>
            <path d="M173.765405,18.8827388 C173.012295,18.8812437 173.009834,18.8812437 173.009834,18.1481454 C173.009834,16.0285892 173.003927,13.909033 173.020171,11.7899752 C173.02214,11.5696968 173.118617,11.1974165 173.24315,11.1620324 C173.570482,11.0703328 173.915534,11.0449161 174.137037,11.5113879 C175.306572,13.9643518 176.519915,16.3948892 177.694864,18.8438662 L178.072404,19.6432473 L178.843726,19.6432473 C178.843726,19.6432473 175.653593,12.9412037 174.536727,10.6352581 C174.480613,10.5221288 174.334913,10.3820875 174.226623,10.378599 C173.575897,10.3546773 172.919264,10.3666382 172.269522,10.3666382 L172.269522,19.60886 L174.545095,19.60886 L174.545095,18.8827388 C174.268954,18.8827388 174.017426,18.8832372 173.765405,18.8827388" id="Fill-49" fill="#000000" mask="url(#mask-2)"></path>
            <path d="M123.153836,0.954423242 L111.027788,0.954423242 L111.027788,6.47334287 L110.247606,6.47334287 L110.247606,0.174976764 C110.391336,0.167501254 110.529652,0.154543704 110.667969,0.154543704 C115.072921,0.153546969 119.476889,0.153546969 123.881841,0.153546969 C124.441997,0.153546969 124.483345,0.212354312 124.240676,0.711219993 C122.494742,4.30195648 120.748315,7.89119787 119.000904,11.4804393 C117.861395,13.8212705 116.721886,16.1630985 115.584346,18.5049265 C115.538569,18.5981212 115.506574,18.696798 115.451937,18.833849 L121.627927,18.833849 L121.627927,14.9246558 L122.388913,14.9246558 L122.388913,19.6272497 L111.845379,19.6272497 C114.673232,13.9732726 117.478442,8.36215499 120.325491,2.671797 C119.909066,2.671797 119.54777,2.64488517 119.192381,2.68824312 C119.086552,2.70120067 118.977769,2.89606229 118.912795,3.02962473 C117.926369,5.04851072 116.948311,7.07188201 115.962378,9.0922631 C114.21792,12.6675502 112.46854,16.2413422 110.722114,19.8166293 C110.625145,20.0154779 110.537528,20.2193101 110.423331,20.4679954 L123.338913,20.4679954 L123.338913,14.9286427 L124.120572,14.9286427 L124.120572,21.3376464 L109.059858,21.3376464 C110.545896,18.1829813 112.09297,15.119019 113.593775,12.0321319 C115.099994,8.93228719 116.62541,5.84141312 118.165592,2.69821047 L112.753541,2.69821047 L112.753541,6.46586736 L111.976312,6.46586736 L111.976312,1.86195012 L121.670259,1.86195012 C118.837976,7.52589463 116.019969,13.1624289 113.168489,18.8657445 C113.602635,18.8657445 113.977713,18.8861775 114.344915,18.8537837 C114.448283,18.8443147 114.570848,18.6943061 114.626962,18.5806784 C115.488362,16.8249303 116.341394,15.0641986 117.191472,13.3029685 C118.595308,10.3989822 119.99619,7.49449749 121.399533,4.58901606 C121.972979,3.40090838 122.546426,2.21230234 123.153836,0.954423242" id="Fill-50" fill="#000000" mask="url(#mask-2)"></path>
            <path d="M98.5698301,0.183997212 C99.6822664,0.124691502 99.4317221,0.0564151799 99.7270592,0.889685328 C100.751387,3.78021574 101.7703,6.67224126 102.789212,9.56476515 C103.805664,12.4438331 104.8231,15.3219044 105.833153,18.2039625 C106.097972,18.9599857 106.086159,18.964471 106.878154,18.9649694 L107.367429,18.9649694 L107.367429,19.8371122 C106.80432,19.8371122 106.244164,19.8460828 105.686469,19.8261481 C105.614111,19.8241547 105.51222,19.6910906 105.477764,19.5988926 C104.893981,17.9821891 104.315613,16.363492 103.740198,14.7437983 C103.101285,12.951171 102.470248,11.1555536 101.833305,9.36143129 C100.958615,6.89550982 100.081464,4.43058509 99.2038204,1.96466362 C98.9965922,1.38157387 98.7898562,0.797985742 98.5698301,0.183997212" id="Fill-51" fill="#000000" mask="url(#mask-2)"></path>
            <path d="M102.225955,19.8276432 L99.6358493,19.8276432 L99.6358493,19.0372327 L100.963389,19.0372327 C100.705462,18.2353597 100.470177,17.4962809 100.231938,16.7581989 C100.061135,16.2294312 99.8780257,15.7061455 99.7224815,15.1743876 C99.658984,14.9585946 99.5590616,14.8788558 99.3370666,14.8798525 C97.6851479,14.8873281 96.0351982,14.8798525 94.3842639,14.8918134 C94.2735125,14.8928101 94.0938492,14.985008 94.0618543,15.077206 C93.612942,16.3435573 93.1832265,17.6168858 92.7303764,18.9475266 L94.2764659,18.9475266 L94.2764659,19.8201677 L91.6302458,19.8201677 C91.6676551,19.6831167 91.6957122,19.5605184 91.7360749,19.4429037 C92.2863863,17.760914 92.8445734,16.0809178 93.3830713,14.3949411 C93.4672423,14.1367869 93.5760248,14.0545563 93.8452738,14.0565145 C95.8501203,14.0695073 97.8549668,14.0685106 99.8588288,14.0580448 C100.140383,14.0565145 100.256057,14.1422689 100.350565,14.4253416 C100.91712,16.1023476 101.514685,17.7688879 102.101422,19.4389167 C102.139815,19.5485575 102.172302,19.6611885 102.225955,19.8276432" id="Fill-52" fill="#000000" mask="url(#mask-2)"></path>
            <polygon id="Fill-53" fill="#000000" mask="url(#mask-2)" points="99.6299918 21.345072 107.366346 21.345072 107.366346 20.6010096 99.6299918 20.6010096"></polygon>
            <polygon id="Fill-54" fill="#000000" mask="url(#mask-2)" points="88.60309 21.3331112 94.280453 21.3331112 94.280453 20.5950292 88.60309 20.5950292"></polygon>
            <path d="M104.206437,19.3465693 C103.491721,17.3296767 102.771591,15.3127842 102.059828,13.2943966 C100.545241,9.00843772 99.0306544,4.72198046 97.5303421,0.430041155 C97.4328809,0.152450561 97.2714299,0.143479949 97.0553416,0.153447296 C96.8195642,0.163913009 96.5675432,0.0796889334 96.4617141,0.436021562 C96.2854963,1.01811458 96.0630091,1.58475822 95.858242,2.15638553 C94.8348991,5.00455472 93.809095,7.85122882 92.7896899,10.7003947 C91.8288599,13.3875913 90.8793513,16.0792732 89.9096612,18.7634795 C89.868314,18.8810942 89.6832361,19.0036926 89.5547645,19.0196403 C89.5020961,19.0256207 89.4504121,19.0281125 89.3992203,19.0311028 L88.6037791,19.0311028 L88.6037791,19.8389562 L88.6037791,19.8474284 L90.046993,19.8474284 L90.0479774,19.8464317 C90.3113196,19.8439398 90.4540659,19.7422729 90.5569416,19.4447476 C91.4621498,16.8637033 92.3900004,14.2906329 93.311452,11.715569 C94.1575927,9.35231116 95.0037335,6.98955173 95.8508586,4.62629393 C96.2185533,3.600654 96.5872324,2.57501407 96.9834763,1.47362231 C97.0450048,1.61765046 97.0794608,1.68542842 97.1050567,1.75719331 C98.2539179,5.02249595 99.4037636,8.28829695 100.552133,11.5535996 C101.437652,14.0718496 102.318248,16.5910964 103.210658,19.1063562 C103.50255,19.9301574 103.293845,19.738286 104.117835,19.7622076 C104.178872,19.7646994 104.241385,19.7512435 104.327525,19.7432696 C104.282732,19.5952546 104.24926,19.469666 104.206437,19.3465693" id="Fill-55" fill="#000000" mask="url(#mask-2)"></path>
            <path d="M94.9862593,12.3642937 C95.634032,10.3907591 96.273929,8.44363804 96.9148104,6.49552021 L97.0034115,6.49552021 C97.5896556,8.44014947 98.1773764,10.3847787 98.7749417,12.3642937 L94.9862593,12.3642937 Z M99.8514453,12.8786088 C99.3129474,11.2624036 98.7719884,9.64669674 98.232506,8.03098991 C97.8692414,6.94604426 96.9517275,4.24389669 96.9517275,4.24389669 C96.9517275,4.24389669 94.834653,10.130113 93.9043412,12.7694663 C93.8580717,12.8985435 93.8314914,13.0340994 93.7886675,13.1935769 L99.9400465,13.1935769 C99.8996837,13.0520406 99.8795024,12.9643279 99.8514453,12.8786088 L99.8514453,12.8786088 Z" id="Fill-56" fill="#000000" mask="url(#mask-2)"></path>
            <path d="M156.401849,0.183997212 C157.514778,0.124691502 157.264233,0.0564151799 157.559078,0.889685328 C158.583406,3.78021574 159.602811,6.67224126 160.621232,9.56476515 C161.637683,12.4438331 162.654627,15.3219044 163.665664,18.2039625 C163.929007,18.9599857 163.917685,18.964471 164.710665,18.9649694 L165.198464,18.9649694 L165.198464,19.8371122 C164.635355,19.8371122 164.076675,19.8460828 163.518488,19.8261481 C163.445638,19.8241547 163.343747,19.6910906 163.309783,19.5988926 C162.725508,17.9821891 162.14714,16.363492 161.571725,14.7437983 C160.933797,12.951171 160.301775,11.1555536 159.665816,9.36143129 C158.791126,6.89550982 157.912991,4.43058509 157.035839,1.96466362 C156.829104,1.38157387 156.619906,0.797985742 156.401849,0.183997212" id="Fill-57" fill="#000000" mask="url(#mask-2)"></path>
            <path d="M160.058024,19.8276432 L157.469394,19.8276432 L157.469394,19.0372327 L158.793981,19.0372327 C158.536546,18.2353597 158.301753,17.4962809 158.063022,16.7581989 C157.894187,16.2294312 157.709602,15.7061455 157.55455,15.1743876 C157.492529,14.9585946 157.391622,14.8788558 157.16815,14.8798525 C155.517708,14.8873281 153.866774,14.8798525 152.216332,14.8918134 C152.105089,14.8928101 151.925425,14.985008 151.892938,15.077206 C151.444026,16.3435573 151.014803,17.6168858 150.560968,18.9475266 L152.108042,18.9475266 L152.108042,19.8201677 L149.462806,19.8201677 C149.500216,19.6831167 149.52778,19.5605184 149.567651,19.4429037 C150.119931,17.760914 150.677134,16.0809178 151.217109,14.3949411 C151.298326,14.1367869 151.408585,14.0545563 151.678327,14.0565145 C153.682681,14.0695073 155.686543,14.0685106 157.690897,14.0580448 C157.972452,14.0565145 158.087141,14.1422689 158.183126,14.4253416 C158.749681,16.1023476 159.347246,17.7688879 159.93349,19.4389167 C159.971884,19.5485575 160.004863,19.6611885 160.058024,19.8276432" id="Fill-58" fill="#000000" mask="url(#mask-2)"></path>
            <polygon id="Fill-59" fill="#000000" mask="url(#mask-2)" points="157.462405 21.345072 165.197775 21.345072 165.197775 20.6010096 157.462405 20.6010096"></polygon>
            <polygon id="Fill-60" fill="#000000" mask="url(#mask-2)" points="146.436487 21.3331112 152.11385 21.3331112 152.11385 20.5950292 146.436487 20.5950292"></polygon>
            <path d="M162.037963,19.3465693 C161.323248,17.3296767 160.604102,15.3127842 159.891355,13.2943966 C158.37726,9.00843772 156.863166,4.72198046 155.361869,0.430041155 C155.264408,0.152450561 155.103941,0.143479949 154.886869,0.153447296 C154.652076,0.163913009 154.400547,0.0796889334 154.291764,0.436021562 C154.117515,1.01811458 153.895028,1.58475822 153.688784,2.15638553 C152.666426,5.00455472 151.64013,7.85122882 150.621709,10.7003947 C149.660387,13.3875913 148.712355,16.0792732 147.74168,18.7634795 C147.698856,18.8810942 147.51624,19.0036926 147.386784,19.0196403 C147.3351,19.0256207 147.282431,19.0281125 147.229763,19.0311028 L146.436783,19.0311028 L146.436783,19.8389562 L146.436783,19.8474284 L147.879504,19.8474284 L147.880981,19.8464317 C148.142847,19.8439398 148.286085,19.7422729 148.389453,19.4447476 C149.294661,16.8637033 150.223004,14.2906329 151.144456,11.715569 C151.989612,9.35231116 152.836737,6.98955173 153.682385,4.62629393 C154.051557,3.600654 154.420236,2.57501407 154.814511,1.47362231 C154.877024,1.61765046 154.911972,1.68542842 154.937076,1.75719331 C156.086921,5.02249595 157.235783,8.28829695 158.384644,11.5535996 C159.271147,14.0718496 160.150267,16.5910964 161.04317,19.1063562 C161.334077,19.9301574 161.126849,19.738286 161.949855,19.7622076 C162.011383,19.7646994 162.072419,19.7512435 162.158067,19.7432696 C162.114751,19.5952546 162.08128,19.469666 162.037963,19.3465693" id="Fill-61" fill="#000000" mask="url(#mask-2)"></path>
            <path d="M152.817835,12.3642937 C153.4661,10.3907591 154.107474,8.44363804 154.748355,6.49552021 L154.83548,6.49552021 C155.422708,8.44014947 156.009937,10.3847787 156.606026,12.3642937 L152.817835,12.3642937 Z M157.683021,12.8786088 C157.144031,11.2624036 156.604057,9.64669674 156.066051,8.03098991 C155.700817,6.94604426 154.783304,4.24389669 154.783304,4.24389669 C154.783304,4.24389669 152.666229,10.130113 151.736902,12.7694663 C151.690632,12.8985435 151.664544,13.0340994 151.620736,13.1935769 L157.771623,13.1935769 C157.732244,13.0520406 157.711078,12.9643279 157.683021,12.8786088 L157.683021,12.8786088 Z" id="Fill-62" fill="#000000" mask="url(#mask-2)"></path>
            <path d="M135.756164,0.183997212 C136.8686,0.124691502 136.618548,0.0564151799 136.913393,0.889685328 C137.936736,3.78021574 138.955649,6.67224126 139.975054,9.56476515 C140.991998,12.4438331 142.007957,15.3219044 143.019487,18.2039625 C143.282829,18.9599857 143.272492,18.964471 144.064488,18.9649694 L144.553271,18.9649694 L144.553271,19.8371122 C143.989669,19.8371122 143.430497,19.8460828 142.872803,19.8261481 C142.799461,19.8241547 142.698062,19.6910906 142.663113,19.5988926 C142.07933,17.9821891 141.500962,16.363492 140.925547,14.7437983 C140.288111,12.951171 139.65609,11.1555536 139.019638,9.36143129 C138.144456,6.89550982 137.266813,4.43058509 136.390154,1.96466362 C136.183418,1.38157387 135.973729,0.797985742 135.756164,0.183997212" id="Fill-63" fill="#000000" mask="url(#mask-2)"></path>
            <path d="M139.411797,19.8276432 L136.823167,19.8276432 L136.823167,19.0372327 L138.148738,19.0372327 C137.890811,18.2353597 137.655526,17.4962809 137.417287,16.7581989 C137.24796,16.2294312 137.063375,15.7061455 136.908815,15.1743876 C136.845318,14.9585946 136.744903,14.8788558 136.521923,14.8798525 C134.871481,14.8873281 133.221039,14.8798525 131.570105,14.8918134 C131.458369,14.8928101 131.279198,14.985008 131.247203,15.077206 C130.798291,16.3435573 130.36956,17.6168858 129.914741,18.9475266 L131.462799,18.9475266 L131.462799,19.8201677 L128.816087,19.8201677 C128.853989,19.6831167 128.882046,19.5605184 128.921424,19.4429037 C129.47272,17.760914 130.030907,16.0809178 130.569405,14.3949411 C130.652591,14.1367869 130.762358,14.0545563 131.0321,14.0565145 C133.036454,14.0695073 135.040316,14.0685106 137.045162,14.0580448 C137.326717,14.0565145 137.440422,14.1422689 137.536899,14.4253416 C138.103453,16.1023476 138.700527,17.7688879 139.286771,19.4389167 C139.324672,19.5485575 139.359128,19.6611885 139.411797,19.8276432" id="Fill-64" fill="#000000" mask="url(#mask-2)"></path>
            <polygon id="Fill-65" fill="#000000" mask="url(#mask-2)" points="136.81539 21.345072 144.552237 21.345072 144.552237 20.6010096 136.81539 20.6010096"></polygon>
            <polygon id="Fill-66" fill="#000000" mask="url(#mask-2)" points="125.789965 21.3331112 131.466836 21.3331112 131.466836 20.5950292 125.789965 20.5950292"></polygon>
            <path d="M141.391786,19.3465693 C140.677562,17.3296767 139.957924,15.3127842 139.245177,13.2943966 C137.731083,9.00843772 136.216988,4.72198046 134.715691,0.430041155 C134.618722,0.152450561 134.457763,0.143479949 134.240691,0.153447296 C134.005898,0.163913009 133.753877,0.0796889334 133.646079,0.436021562 C133.47183,1.01811458 133.249343,1.58475822 133.043099,2.15638553 C132.02074,5.00455472 130.994444,7.85122882 129.975039,10.7003947 C129.014701,13.3875913 128.066177,16.0792732 127.095503,18.7634795 C127.053171,18.8810942 126.870062,19.0036926 126.740114,19.0196403 C126.688922,19.0256207 126.635761,19.0281125 126.584569,19.0311028 L125.790113,19.0311028 L125.790113,19.8389562 L125.790113,19.8474284 L127.233819,19.8474284 L127.234803,19.8464317 C127.496669,19.8439398 127.639907,19.7422729 127.743275,19.4447476 C128.648483,16.8637033 129.575842,14.2906329 130.498278,11.715569 C131.343434,9.35231116 132.190067,6.98955173 133.036208,4.62629393 C133.404887,3.600654 133.774058,2.57501407 134.168825,1.47362231 C134.231338,1.61765046 134.265302,1.68542842 134.290898,1.75719331 C135.439759,5.02249595 136.589113,8.28829695 137.738958,11.5535996 C138.623985,14.0718496 139.504582,16.5910964 140.3965,19.1063562 C140.687899,19.9301574 140.480179,19.738286 141.303677,19.7622076 C141.365205,19.7646994 141.426734,19.7512435 141.511889,19.7432696 C141.468573,19.5952546 141.435102,19.469666 141.391786,19.3465693" id="Fill-67" fill="#000000" mask="url(#mask-2)"></path>
            <path d="M132.171608,12.3642937 C132.820858,10.3907591 133.460755,8.44363804 134.101144,6.49552021 L134.189745,6.49552021 C134.775989,8.44014947 135.36371,10.3847787 135.960291,12.3642937 L132.171608,12.3642937 Z M137.037287,12.8786088 C136.498297,11.2624036 135.958322,9.64669674 135.41884,8.03098991 C135.05459,6.94604426 134.138061,4.24389669 134.138061,4.24389669 C134.138061,4.24389669 132.020494,10.130113 131.090675,12.7694663 C131.044897,12.8985435 131.017825,13.0340994 130.974509,13.1935769 L137.125396,13.1935769 C137.086509,13.0520406 137.064851,12.9643279 137.037287,12.8786088 L137.037287,12.8786088 Z" id="Fill-68" fill="#000000" mask="url(#mask-2)"></path>
        </g>
    </g>
</svg>
